<svg xmlns="http://www.w3.org/2000/svg" viewBox="0 0 512 512" role="img" aria-labelledby="title desc">
  <title id="title">py-dyneval sticker</title>
  <desc id="desc">OmicVerse repository hex sticker for py-dyneval.</desc>
  <defs>
    <linearGradient id="bg" x1="112" y1="90" x2="398" y2="430" gradientUnits="userSpaceOnUse">
      <stop offset="0" stop-color="#050706"/>
      <stop offset=".58" stop-color="#020403"/>
      <stop offset="1" stop-color="#000000"/>
    </linearGradient>
  </defs>
  <polygon points="256,34 450,146 450,368 256,480 62,368 62,146" fill="#000000" opacity=".34"/>
  <polygon points="256,22 458,139 458,373 256,490 54,373 54,139" fill="url(#bg)" stroke="#0B0F0A" stroke-width="19" stroke-linejoin="round"/>
  <polygon points="256,22 458,139 458,373 256,490 54,373 54,139" fill="none" stroke="#E8FFE0" stroke-width="12" stroke-linejoin="round"/>
  <g opacity=".22" stroke="#3FD36B" stroke-width="2.2">
    <path d="M112 166h288M100 222h312M100 278h312M112 334h288"/>
    <path d="M152 126v236M204 104v274M256 96v286M308 104v274M360 126v236"/>
  </g>
  <g id="motif">
    <path d="M146 328h220M170 328V176" stroke="#FFFFFF" stroke-width="7" stroke-linecap="round"/>
    <path d="M180 288l46-50 46 34 70-92" fill="none" stroke="#32D74B" stroke-width="8" stroke-linecap="round" stroke-linejoin="round"/>
    <path d="M292 330l28 28 62-72" fill="none" stroke="#FFD60A" stroke-width="9" stroke-linecap="round" stroke-linejoin="round"/>
    <circle cx="226" cy="238" r="12" fill="#FFD60A"/><circle cx="272" cy="272" r="12" fill="#FF6961"/><circle cx="342" cy="180" r="12" fill="#00C7BE"/>
  </g>
  <path id="label" d="M306.14,381.66 L311.31,390.61 L305.86,393.76 L292.27,370.22 L297.72,367.08 L299.16,369.57 Q299.43,367.43 300.39,365.93 Q301.35,364.44 303.13,363.41 Q306.28,361.59 309.75,362.92 Q313.22,364.26 315.50,368.20 Q317.77,372.14 317.20,375.82 Q316.62,379.49 313.47,381.31 Q311.69,382.34 309.91,382.42 Q308.13,382.50 306.14,381.66 Z M303.39,368.53 Q301.64,369.54 301.44,371.37 Q301.25,373.20 302.65,375.62 Q304.05,378.04 305.72,378.79 Q307.41,379.53 309.16,378.52 Q310.90,377.51 311.09,375.70 Q311.27,373.89 309.87,371.45 Q308.46,369.01 306.80,368.27 Q305.14,367.52 303.39,368.53 Z M312.35,358.63 L317.80,355.48 L329.06,364.41 L326.28,350.59 L331.73,347.44 L335.33,370.25 Q335.90,373.72 335.11,375.68 Q334.33,377.64 331.97,379.01 L328.82,380.83 L326.75,377.25 L328.46,376.27 Q329.84,375.47 330.22,374.66 Q330.60,373.86 330.29,372.51 L330.17,371.95 L312.35,358.63 Z M337.37,352.00 L346.92,346.48 L349.48,350.91 L339.92,356.43 L337.37,352.00 Z M360.89,333.93 L355.62,324.80 L361.10,321.63 L374.77,345.32 L369.29,348.49 L367.87,346.02 Q367.61,348.18 366.66,349.66 Q365.71,351.15 363.93,352.17 Q360.78,353.99 357.31,352.66 Q353.84,351.32 351.56,347.38 Q349.29,343.44 349.86,339.76 Q350.45,336.09 353.60,334.27 Q355.36,333.25 357.13,333.17 Q358.90,333.09 360.89,333.93 Z M363.67,347.05 Q365.42,346.03 365.61,344.23 Q365.79,342.41 364.38,339.98 Q362.97,337.54 361.32,336.80 Q359.66,336.05 357.90,337.06 Q356.17,338.06 355.99,339.87 Q355.80,341.68 357.21,344.12 Q358.62,346.55 360.28,347.30 Q361.93,348.05 363.67,347.05 Z M367.93,326.54 L373.38,323.40 L384.64,332.32 L381.86,318.50 L387.31,315.35 L390.91,338.16 Q391.48,341.63 390.69,343.59 Q389.91,345.56 387.55,346.92 L384.40,348.74 L382.33,345.16 L384.04,344.18 Q385.42,343.38 385.79,342.57 Q386.18,341.77 385.86,340.42 L385.75,339.86 L367.93,326.54 Z M411.48,310.29 L417.47,320.67 L411.99,323.84 L411.02,322.14 L407.41,315.89 Q406.13,313.68 405.55,312.90 Q404.97,312.12 404.50,311.87 Q403.87,311.52 403.14,311.54 Q402.43,311.55 401.73,311.96 Q400.02,312.94 399.81,314.83 Q399.59,316.70 400.94,319.03 L405.78,327.42 L400.34,330.57 L390.49,313.52 L395.94,310.37 L397.38,312.87 Q397.75,310.66 398.73,309.16 Q399.71,307.65 401.38,306.68 Q404.33,304.98 406.91,305.91 Q409.48,306.83 411.48,310.29 Z M409.65,294.88 L425.46,285.75 L428.02,290.18 L418.07,295.93 L420.51,300.16 L429.87,294.75 L432.43,299.19 L423.07,304.59 L426.08,309.80 L436.37,303.86 L438.92,308.29 L422.77,317.61 L409.65,294.88 Z" fill="#FFFFFF"/>
</svg>
